<svg xmlns="http://www.w3.org/2000/svg" viewBox="0 0 85.85 98.5">
  <g id="Layer_2" data-name="Layer 2">
    <g id="Layer_1-2" data-name="Layer 1">
      <g>
        <path d="M4.78,6.37V98.5H0V2.4a2.39,2.39,0,1,1,4.78,0Z" style="fill: #f7d2ab"/>
        <path d="M54.06,50.87a6.35,6.35,0,1,1,0,12.7h0a6.34,6.34,0,0,0-6.33,6V50.89h6.38v0Z" style="fill: #24467d"/>
        <path d="M47.69,69.62a6.34,6.34,0,0,1,6.33-6h0a6.35,6.35,0,0,0,6.34-6.34V31.81H85.85L73.13,54.06,85.85,76.33H54.06l0,0a6.34,6.34,0,0,1-6.34-6.34C47.68,69.83,47.68,69.74,47.69,69.62Z" style="fill: #1c3763"/>
        <path d="M60.41,57.23a6.36,6.36,0,0,0-6.35-6.36v0H4.78V6.37H54.05a6.36,6.36,0,0,1,6.36,6.36ZM44.51,28.61A12.71,12.71,0,1,0,31.8,41.32,12.73,12.73,0,0,0,44.51,28.61Z" style="fill: #24467d"/>
        <path d="M31.8,14.3A14.31,14.31,0,1,1,17.5,28.61,14.32,14.32,0,0,1,31.8,14.3Z" style="fill: #ea3323"/>
        <path d="M35.46,24.32l-5.23,5.23-2.05-2.06a1.59,1.59,0,0,0-2.25,2.25l3.18,3.18a1.59,1.59,0,0,0,2.24,0l6.36-6.36a1.59,1.59,0,1,0-2.25-2.24Z" style="fill: #fff"/>
      </g>
    </g>
  </g>
</svg>
