<?xml version="1.0"?>
<svg xmlns="http://www.w3.org/2000/svg" xmlns:xlink="http://www.w3.org/1999/xlink" xmlns:svgjs="http://svgjs.com/svgjs" version="1.1" width="512" height="512" x="0" y="0" viewBox="0 0 495 495.84" style="enable-background:new 0 0 512 512" xml:space="preserve" class=""><g><path xmlns="http://www.w3.org/2000/svg" d="m24.5 32.078125v463.761719h-24.078125v-483.761719c0-6.636719 5.359375-12.078125 12-12.078125 6.71875 0 12.078125 5.433594 12.078125 12.078125zm0 0" fill="#ffd2a6" data-original="#ffd2a6" style="" class=""/><path xmlns="http://www.w3.org/2000/svg" d="m272.578125 256.078125c17.601563 0 31.921875 14.328125 31.921875 32 0 17.609375-14.320312 31.921875-31.921875 31.921875l-.230469.078125c-17.046875 0-31.046875 13.441406-31.839844 30.410156v-94.335937h32.082032v-.074219zm0 0" fill="#194681" data-original="#da4453" style="" class=""/><path xmlns="http://www.w3.org/2000/svg" d="m240.5 350.480469c.800781-16.96875 14.800781-30.410157 31.839844-30.410157l.230468-.078124c17.601563 0 31.921876-14.3125 31.921876-31.921876v-127.917968h128.078124l-64 112 64 112.078125h-160l-.230468-.230469c-17.601563 0-31.917969-14.3125-31.917969-31.921875 0-.566406 0-1.03125.078125-1.597656zm0 0" fill="#133766" data-original="#d3374e" style="" class=""/><path xmlns="http://www.w3.org/2000/svg" d="m304.5 288.078125c0-17.671875-14.320312-32-31.921875-32v.082031h-248.078125v-224.082031h248c17.679688 0 32 14.328125 32 32zm-80-144.078125c0-35.28125-28.71875-64-64-64-35.359375 0-64 28.71875-64 64 0 35.359375 28.640625 64 64 64 35.28125 0 64-28.640625 64-64zm0 0" fill="#194681" data-original="#ed5565" style="" class=""/><path xmlns="http://www.w3.org/2000/svg" d="m160.5 72c39.6875 0 72 32.3125 72 72 0 39.785156-32.3125 72-72 72-39.785156 0-72-32.214844-72-72 0-39.6875 32.214844-72 72-72zm0 0" fill="#ff0000" data-original="#a0d468" style="" class=""/><path xmlns="http://www.w3.org/2000/svg" d="m178.925781 122.40625-26.328125 26.328125-10.328125-10.328125c-3.128906-3.125-8.183593-3.125-11.3125 0-3.128906 3.128906-3.128906 8.1875 0 11.3125l15.984375 15.984375c1.558594 1.5625 3.605469 2.34375 5.65625 2.34375 2.046875 0 4.09375-.78125 5.65625-2.34375l31.980469-31.984375c3.128906-3.125 3.128906-8.183594 0-11.3125-3.125-3.125-8.191406-3.125-11.308594 0zm0 0" fill="#ffffff" data-original="#8cc152" style="" class=""/></g></svg>
